<svg width="68" height="68" viewBox="0 0 68 68" fill="none" xmlns="http://www.w3.org/2000/svg">
<circle cx="23.5" cy="44.5" r="22.5" fill="#F3C4CD"/>
<path d="M46.9801 44.0988C46.9801 56.7692 36.6826 67.0431 23.9768 67.0431C11.271 67.0431 0.973535 56.7692 0.973535 44.0988C0.973535 31.4284 11.271 21.1545 23.9768 21.1545C36.6826 21.1545 46.9801 31.4284 46.9801 44.0988Z" stroke="#232227" stroke-width="1.2"/>
<path d="M67.0429 23.9175C67.0429 36.5879 56.7454 46.8618 44.0396 46.8618C31.3338 46.8618 21.0363 36.5879 21.0363 23.9175C21.0363 11.2471 31.3338 0.973169 44.0396 0.973169C56.7454 0.973169 67.0429 11.2471 67.0429 23.9175Z" fill="#D4FADA" stroke="#232227" stroke-width="1.2"/>
<mask id="mask0_207_3" style="mask-type:alpha" maskUnits="userSpaceOnUse" x="22" y="2" width="44" height="44">
<ellipse cx="44.0396" cy="23.9178" rx="21.243" ry="21.1899" fill="#746BEB"/>
</mask>
<g mask="url(#mask0_207_3)">
<path fill-rule="evenodd" clip-rule="evenodd" d="M99.408 12.6031L54.4048 -32.2877L52.4622 -30.3499L97.4654 14.5408L99.408 12.6031ZM92.9329 19.0624L47.9296 -25.8283L45.9871 -23.8906L90.9903 21.0001L92.9329 19.0624ZM41.4543 -19.3695L86.4575 25.5212L84.5149 27.459L39.5117 -17.4318L41.4543 -19.3695ZM79.9823 31.9805L34.9791 -12.9102L33.0365 -10.9725L78.0397 33.9183L79.9823 31.9805ZM22.3008 -12.6389L77.8806 42.802L75.938 44.7397L20.3582 -10.7012L22.3008 -12.6389ZM73.8611 51.7108L17.3811 -4.62801L15.4385 -2.69028L71.9185 53.6486L73.8611 51.7108ZM15.5531 6.46677L60.5564 51.3575L58.6138 53.2952L13.6106 8.4045L15.5531 6.46677ZM54.0812 57.8168L9.07798 12.9261L7.1354 14.8638L52.1386 59.7546L54.0812 57.8168ZM2.60264 19.3849L47.6059 64.2757L45.6633 66.2134L0.660059 21.3226L2.60264 19.3849ZM41.1306 70.7354L-3.87264 25.8447L-5.81522 27.7824L39.188 72.6732L41.1306 70.7354Z" fill="white"/>
</g>
</svg>
