<svg width="335" height="166" viewBox="0 0 335 166" fill="none" xmlns="http://www.w3.org/2000/svg">
<path d="M99.8501 60.7864C99.8501 66.3758 95.3191 70.9068 89.7297 70.9068C84.1404 70.9068 79.6093 66.3758 79.6093 60.7864C79.6093 55.1971 84.1404 50.666 89.7297 50.666C95.3191 50.666 99.8501 55.1971 99.8501 60.7864Z" fill="#232227"/>
<path d="M84.2745 105.332C65.8651 105.332 50.9414 90.4088 50.9414 71.9994V55.9995C69.3508 55.9995 84.2753 70.9232 84.2753 89.3326L84.2745 105.332Z" fill="#232227"/>
<path d="M120.941 66.666C102.532 66.666 87.6083 81.5898 87.6083 99.9991V115.999C106.018 115.999 120.941 101.075 120.941 82.6659V66.666Z" fill="#232227"/>
<path d="M182.576 60.6106V100.743H174.527V74.6396L163.775 100.743H157.681L146.872 74.6396V100.743H138.822V60.6106H147.964L160.728 90.4508L173.492 60.6106H182.576Z" fill="#232227"/>
<path d="M192.317 65.0953C190.899 65.0953 189.71 64.6545 188.752 63.7729C187.832 62.853 187.372 61.7222 187.372 60.3807C187.372 59.0391 187.832 57.9275 188.752 57.0459C189.71 56.126 190.899 55.666 192.317 55.666C193.735 55.666 194.904 56.126 195.824 57.0459C196.782 57.9275 197.262 59.0391 197.262 60.3807C197.262 61.7222 196.782 62.853 195.824 63.7729C194.904 64.6545 193.735 65.0953 192.317 65.0953ZM196.284 68.89V100.743H188.235V68.89H196.284Z" fill="#232227"/>
<path d="M219.588 68.4301C223.383 68.4301 226.449 69.6375 228.788 72.0524C231.126 74.4288 232.295 77.7636 232.295 82.0566V100.743H224.245V83.149C224.245 80.6192 223.613 78.6835 222.348 77.342C221.083 75.9621 219.358 75.2721 217.173 75.2721C214.95 75.2721 213.187 75.9621 211.884 77.342C210.619 78.6835 209.987 80.6192 209.987 83.149V100.743H201.937V68.8901H209.987V72.8573C211.06 71.4774 212.421 70.4042 214.069 69.6375C215.755 68.8326 217.595 68.4301 219.588 68.4301Z" fill="#232227"/>
<path d="M247.021 75.502V90.9108C247.021 91.9841 247.27 92.7698 247.769 93.2681C248.305 93.7281 249.187 93.9581 250.414 93.9581H254.151V100.743H249.091C242.307 100.743 238.914 97.4461 238.914 90.8533V75.502H232.941V68.89H238.914V61.0131H247.021V68.89V75.502Z" fill="#232227"/>
<path d="M284.33 68.89L264.609 115.806H256.042L262.941 99.9376L250.177 68.89H259.204L267.426 91.1408L275.763 68.89H284.33Z" fill="#232227"/>
</svg>
