<svg width="100" height="26" viewBox="0 0 100 26" fill="none" xmlns="http://www.w3.org/2000/svg">
<g clip-path="url(#clip0_808_32)">
<path d="M18.25 23L14.298 8.362L10.32 23H7.382L2.52 4.332H5.328L8.916 18.71L12.842 4.332H15.806L19.68 18.736L23.268 4.332H26.076L21.214 23H18.25ZM40.4615 20.504V23H28.6315V4.332H40.2795V6.828H31.4915V12.132H39.4995V14.628H31.4915V20.504H40.4615ZM54.9039 4.332V16.578C54.9039 17.982 54.6352 19.1953 54.0979 20.218C53.5779 21.2407 52.8239 22.0293 51.8359 22.584C50.8479 23.1213 49.6606 23.39 48.2739 23.39C46.9046 23.39 45.7346 23.1213 44.7639 22.584C43.7932 22.0467 43.0392 21.3013 42.5019 20.348C41.9646 19.3947 41.6786 18.2853 41.6439 17.02H44.5299C44.5646 17.8173 44.7206 18.502 44.9979 19.074C45.2926 19.6287 45.7086 20.062 46.2459 20.374C46.8006 20.6687 47.4766 20.816 48.2739 20.816C49.0886 20.816 49.7732 20.66 50.3279 20.348C50.8826 20.036 51.2986 19.5767 51.5759 18.97C51.8706 18.346 52.0179 17.592 52.0179 16.708V4.332H54.9039ZM67.219 23.39C65.867 23.39 64.6103 23.1473 63.449 22.662C62.305 22.1593 61.2996 21.466 60.433 20.582C59.5836 19.698 58.9163 18.6667 58.431 17.488C57.963 16.292 57.729 15.0093 57.729 13.64C57.729 12.2707 57.963 10.9967 58.431 9.818C58.9163 8.63933 59.5836 7.61667 60.433 6.75C61.2996 5.866 62.305 5.18133 63.449 4.696C64.6103 4.19333 65.867 3.942 67.219 3.942C68.571 3.942 69.819 4.19333 70.963 4.696C72.1243 5.18133 73.1296 5.866 73.979 6.75C74.8456 7.61667 75.513 8.63933 75.981 9.818C76.4663 10.9967 76.709 12.2707 76.709 13.64C76.709 15.0093 76.4663 16.292 75.981 17.488C75.513 18.6667 74.8456 19.698 73.979 20.582C73.1296 21.466 72.1243 22.1593 70.963 22.662C69.819 23.1473 68.571 23.39 67.219 23.39ZM67.219 20.816C68.207 20.816 69.0996 20.634 69.897 20.27C70.6943 19.906 71.379 19.3947 71.951 18.736C72.5403 18.0773 72.9823 17.3147 73.277 16.448C73.589 15.564 73.745 14.628 73.745 13.64C73.745 12.652 73.589 11.7247 73.277 10.858C72.9823 9.99133 72.5403 9.23733 71.951 8.596C71.379 7.93733 70.6943 7.426 69.897 7.062C69.0996 6.698 68.207 6.516 67.219 6.516C66.231 6.516 65.3383 6.698 64.541 7.062C63.7436 7.426 63.0503 7.93733 62.461 8.596C61.889 9.23733 61.447 9.99133 61.135 10.858C60.8403 11.7247 60.693 12.652 60.693 13.64C60.693 14.628 60.8403 15.564 61.135 16.448C61.447 17.3147 61.889 18.0773 62.461 18.736C63.0503 19.3947 63.7436 19.906 64.541 20.27C65.3383 20.634 66.231 20.816 67.219 20.816ZM86.0188 16.006V23H83.1328V16.006L76.4248 4.332H79.5448L84.6668 13.328L89.8408 4.332H92.7528L86.0188 16.006Z" fill="#232227"/>
<circle cx="93" cy="21" r="2" fill="#232227"/>
<path d="M75 16C75 14.5555 74.7931 13.1251 74.391 11.7904C73.989 10.4559 73.3997 9.24331 72.6569 8.2218C71.914 7.20038 71.0321 6.39018 70.0614 5.83735C69.0909 5.28453 68.0506 5 67 5C65.9494 5 64.9091 5.28453 63.9385 5.83735C62.9679 6.39018 62.086 7.20038 61.3431 8.2218C60.6003 9.24331 60.011 10.4559 59.6089 11.7904C59.2069 13.1251 59 14.5555 59 16L67 16L75 16Z" fill="#232227"/>
</g>
<defs>
<clipPath id="clip0_808_32">
<rect width="100" height="26" fill="white"/>
</clipPath>
</defs>
</svg>
