<svg width="444" height="202" viewBox="0 0 444 202" fill="none" xmlns="http://www.w3.org/2000/svg">
<path d="M178.791 73H189.13V128.671H178.791V73Z" fill="#232227"/>
<path d="M223.355 85.7249C228.71 85.7249 233.005 87.289 236.239 90.4172C239.473 93.5454 241.09 98.1847 241.09 104.335V128.671H231.149V105.608C231.149 101.896 230.274 99.1126 228.524 97.2568C226.775 95.3481 224.283 94.3937 221.049 94.3937C217.39 94.3937 214.5 95.5072 212.38 97.734C210.259 99.9079 209.198 103.063 209.198 107.198V128.671H199.257V86.2021H208.721V91.6897C210.365 89.7279 212.433 88.2434 214.925 87.236C217.417 86.2286 220.227 85.7249 223.355 85.7249Z" fill="#232227"/>
<path d="M288.714 86.2021L270.501 128.671H260.242L242.029 86.2021H252.368L265.57 117.696L279.17 86.2021H288.714Z" fill="#232227"/>
<path d="M329.71 107.675C329.71 108.365 329.657 109.345 329.551 110.618H296.227C296.811 113.746 298.322 116.238 300.761 118.094C303.253 119.897 306.328 120.798 309.986 120.798C314.652 120.798 318.496 119.26 321.518 116.185L326.847 122.309C324.938 124.589 322.525 126.312 319.609 127.478C316.693 128.645 313.406 129.228 309.748 129.228C305.082 129.228 300.973 128.3 297.42 126.445C293.868 124.589 291.111 122.017 289.149 118.73C287.24 115.39 286.286 111.625 286.286 107.437C286.286 103.301 287.214 99.5897 289.07 96.3025C290.978 92.9622 293.603 90.3642 296.943 88.5085C300.283 86.6528 304.048 85.7249 308.236 85.7249C312.372 85.7249 316.057 86.6528 319.291 88.5085C322.578 90.3112 325.123 92.8827 326.926 96.2229C328.782 99.5102 329.71 103.328 329.71 107.675ZM308.236 93.678C305.055 93.678 302.351 94.6323 300.124 96.5411C297.95 98.3968 296.625 100.889 296.148 104.017H320.246C319.821 100.942 318.522 98.4498 316.349 96.5411C314.175 94.6323 311.471 93.678 308.236 93.678Z" fill="#232227"/>
<path d="M344.747 92.4055C347.61 87.9518 352.647 86.5202 359.857 86.5202V94.4733C359.009 94.3142 358.24 94.2347 357.551 94.2347C353.681 94.2347 350.658 96.0904 348.485 98.3703C346.311 100.597 345.224 103.831 345.224 108.073V128.671H335.282V86.2021H344.747V92.4055Z" fill="#232227"/>
<path d="M393.397 126.365C392.23 127.319 390.799 128.035 389.102 128.512C387.459 128.99 385.709 129.228 383.853 129.228C379.187 129.228 375.582 128.009 373.037 125.57C370.492 123.131 369.22 119.578 369.22 114.913V94.4733H362.221V86.5202H369.22V76.8175H379.161V86.5202H390.534V94.4733H379.161V114.674C379.161 116.742 379.665 118.332 380.672 119.446C381.679 120.506 383.137 121.037 385.046 121.037C387.273 121.037 389.129 120.453 390.613 119.287L393.397 126.365Z" fill="#232227"/>
<path fill-rule="evenodd" clip-rule="evenodd" d="M148.791 95C148.791 119.853 128.644 140 103.791 140C78.9382 140 58.791 119.853 58.791 95C58.791 70.1472 78.9382 50 103.791 50C128.644 50 148.791 70.1472 148.791 95ZM134.649 95C134.649 112.042 120.834 125.857 103.792 125.857C102.61 125.857 101.444 125.791 100.297 125.662C115.805 124.032 127.892 110.915 127.892 94.9744C127.892 79.1144 115.925 66.0488 100.529 64.3134C101.601 64.2007 102.69 64.1429 103.792 64.1429C120.834 64.1429 134.649 77.9581 134.649 95ZM93.8266 116.735C103.997 114.939 111.732 105.891 111.732 95C111.732 84.1088 103.997 75.0611 93.8266 73.2652C95.0573 73.0522 96.3229 72.9412 97.6145 72.9412C109.797 72.9412 119.673 82.8173 119.673 95C119.673 107.183 109.797 117.059 97.6145 117.059C96.3229 117.059 95.0573 116.948 93.8266 116.735Z" fill="#232227"/>
</svg>
