<svg width="175" height="185" viewBox="0 0 175 185" fill="none" xmlns="http://www.w3.org/2000/svg">
<path d="M82 162.21V161.273H94V162.21H82Z" fill="#232227"/>
<path d="M70.7195 155.733L73.3209 156.43L71.0621 164.86L68.3455 164.132C67.5277 163.913 66.8732 163.557 66.3819 163.063C65.8899 162.573 65.573 161.972 65.4313 161.26C65.2888 160.551 65.3345 159.761 65.5683 158.888C65.8036 158.01 66.1626 157.296 66.6453 156.746C67.1272 156.199 67.7129 155.835 68.4023 155.655C69.0909 155.478 69.8634 155.504 70.7195 155.733ZM72.0575 157.062L70.5427 156.656C69.8457 156.47 69.2321 156.449 68.7017 156.595C68.1714 156.742 67.7272 157.033 67.3691 157.469C67.011 157.906 66.74 158.467 66.5562 159.153C66.3739 159.833 66.328 160.449 66.4187 161C66.5086 161.553 66.7392 162.021 67.1104 162.403C67.4809 162.787 67.9954 163.068 68.654 163.244L70.284 163.681L72.0575 157.062Z" fill="#232227"/>
<path d="M64.6968 153.868L61.3571 161.931L56.4909 159.915L56.8497 159.049L60.7395 160.66L61.8679 157.936L58.2302 156.429L58.5889 155.563L62.2267 157.07L63.3617 154.329L59.409 152.692L59.7677 151.826L64.6968 153.868Z" fill="#232227"/>
<path d="M49.4923 153.691C49.3207 154.09 49.3327 154.484 49.5283 154.873C49.7239 155.261 50.0505 155.587 50.5081 155.852C50.8427 156.045 51.1667 156.16 51.4802 156.196C51.7912 156.232 52.0715 156.195 52.3211 156.086C52.5682 155.977 52.7614 155.801 52.9006 155.56C53.0171 155.358 53.0693 155.157 53.0571 154.956C53.0411 154.757 52.9845 154.565 52.8874 154.381C52.7888 154.2 52.6736 154.03 52.5418 153.872C52.4086 153.716 52.2826 153.579 52.1636 153.461L51.5153 152.812C51.3483 152.646 51.1706 152.448 50.982 152.218C50.791 151.987 50.6302 151.728 50.4997 151.443C50.3653 151.159 50.2959 150.853 50.2913 150.525C50.2868 150.198 50.3868 149.857 50.5913 149.503C50.8271 149.094 51.1472 148.787 51.5516 148.581C51.9535 148.374 52.4148 148.291 52.9354 148.332C53.4536 148.372 54.003 148.56 54.5836 148.895C55.1249 149.207 55.5432 149.565 55.8384 149.969C56.1312 150.371 56.3006 150.793 56.3465 151.236C56.39 151.678 56.3072 152.114 56.0981 152.544L55.1533 151.999C55.2935 151.699 55.3339 151.408 55.2746 151.124C55.2114 150.842 55.0769 150.58 54.8711 150.34C54.6614 150.101 54.4065 149.895 54.1064 149.721C53.757 149.52 53.4106 149.395 53.0673 149.348C52.7225 149.303 52.41 149.336 52.1297 149.446C51.848 149.559 51.6276 149.753 51.4685 150.029C51.3236 150.28 51.2759 150.525 51.3252 150.763C51.3745 151.001 51.4852 151.236 51.6572 151.466C51.8292 151.697 52.0267 151.926 52.2498 152.153L53.0264 152.956C53.5188 153.466 53.8464 153.979 54.009 154.492C54.1716 155.006 54.1059 155.518 53.8119 156.027C53.5676 156.45 53.2401 156.753 52.8295 156.936C52.415 157.12 51.9629 157.187 51.4733 157.137C50.9799 157.088 50.492 156.925 50.0098 156.646C49.5227 156.365 49.1401 156.028 48.8621 155.634C48.5826 155.243 48.4188 154.834 48.3707 154.406C48.3201 153.977 48.3987 153.568 48.6066 153.179L49.4923 153.691Z" fill="#232227"/>
<path d="M41.4831 150.758L46.7959 143.835L47.6343 144.478L42.3215 151.402L41.4831 150.758Z" fill="#232227"/>
<path d="M34.2148 140.452C34.0782 140.722 33.9838 140.991 33.9316 141.26C33.8753 141.529 33.8643 141.795 33.8984 142.058C33.9306 142.32 34.0099 142.574 34.1365 142.821C34.263 143.068 34.4378 143.303 34.6608 143.526C35.0264 143.892 35.4532 144.13 35.9414 144.24C36.4295 144.351 36.9458 144.31 37.4902 144.12C38.0346 143.929 38.574 143.566 39.1083 143.032C39.6426 142.497 40.0042 141.957 40.1931 141.411C40.3819 140.864 40.4181 140.344 40.3015 139.85C40.185 139.356 39.9359 138.918 39.5543 138.536C39.2007 138.182 38.814 137.946 38.3942 137.828C37.9703 137.709 37.5444 137.713 37.1165 137.84C36.6847 137.966 36.2799 138.219 35.9022 138.596L35.7214 138.319L37.5776 140.175L36.9147 140.838L34.5643 138.488L35.2272 137.825C35.7355 137.317 36.2859 136.983 36.8785 136.824C37.4691 136.664 38.0577 136.67 38.6443 136.843C39.2268 137.015 39.7632 137.347 40.2533 137.837C40.7997 138.383 41.1513 138.992 41.308 139.663C41.4626 140.332 41.4185 141.019 41.1754 141.724C40.9303 142.427 40.4823 143.104 39.8315 143.755C39.3433 144.243 38.8391 144.617 38.3188 144.876C37.7945 145.135 37.2742 145.282 36.758 145.316C36.2417 145.35 35.7455 145.276 35.2694 145.093C34.7933 144.91 34.3574 144.621 33.9617 144.225C33.6363 143.9 33.3821 143.547 33.1993 143.167C33.0125 142.788 32.898 142.398 32.8558 141.998C32.8096 141.598 32.8357 141.201 32.9342 140.805C33.0306 140.411 33.2003 140.037 33.4434 139.681L34.2148 140.452Z" fill="#232227"/>
<path d="M25.8154 134.355L32.7392 129.042L33.3618 129.854L30.8206 137.798L30.8725 137.866L36.3088 133.694L36.9521 134.533L30.0283 139.845L29.4057 139.034L31.95 131.066L31.8982 130.998L26.4484 135.18L25.8154 134.355Z" fill="#232227"/>
<path d="M26.919 118.617L27.343 119.64L18.0537 120.02L17.6363 119.012L24.4729 112.711L24.8969 113.735L19.1075 118.956L19.1336 119.019L26.919 118.617ZM23.6129 119.543L21.9038 115.418L22.77 115.059L24.479 119.185L23.6129 119.543Z" fill="#232227"/>
<path d="M16.6945 106.934C16.4416 107.099 16.2252 107.285 16.0454 107.492C15.8621 107.697 15.7195 107.922 15.6175 108.167C15.5147 108.409 15.4564 108.669 15.4424 108.946C15.4285 109.224 15.4623 109.515 15.544 109.819C15.6778 110.319 15.9284 110.738 16.2959 111.078C16.6634 111.418 17.1306 111.641 17.6975 111.748C18.2644 111.855 18.9128 111.811 19.6427 111.615C20.3727 111.419 20.956 111.132 21.3927 110.753C21.8295 110.375 22.1209 109.942 22.2671 109.456C22.4133 108.97 22.4165 108.466 22.2768 107.944C22.1474 107.462 21.9305 107.064 21.6262 106.751C21.3184 106.437 20.9476 106.227 20.5137 106.123C20.0764 106.016 19.5998 106.032 19.0839 106.171L19.066 105.84L19.7454 108.376L18.8398 108.618L17.9795 105.408L18.8851 105.165C19.5793 104.979 20.2227 104.966 20.8153 105.124C21.4071 105.281 21.9138 105.58 22.3355 106.023C22.7536 106.464 23.0524 107.019 23.2318 107.689C23.4318 108.435 23.4319 109.138 23.2321 109.797C23.0316 110.454 22.6498 111.027 22.0867 111.516C21.523 112.002 20.7965 112.365 19.9074 112.603C19.2406 112.782 18.6171 112.853 18.037 112.817C17.4533 112.78 16.9294 112.646 16.4653 112.418C16.0011 112.189 15.6085 111.877 15.2876 111.48C14.9667 111.084 14.7339 110.616 14.589 110.075C14.4699 109.63 14.4261 109.198 14.4576 108.778C14.4857 108.356 14.5814 107.961 14.7447 107.594C14.9046 107.224 15.1261 106.893 15.4092 106.599C15.6895 106.307 16.0239 106.067 16.4121 105.881L16.6945 106.934Z" fill="#232227"/>
<path d="M21.9033 102.253L13.2507 103.392L12.5632 98.1699L13.4927 98.0475L14.0422 102.222L16.9659 101.837L16.4519 97.933L17.3814 97.8106L17.8954 101.714L20.8359 101.327L20.2775 97.0855L21.2069 96.9632L21.9033 102.253Z" fill="#232227"/>
<path d="M12.2727 87.5403H21V88.563L14.1477 93.3187V93.4039H21V94.4608H12.2727V93.438L19.142 88.6653V88.5801H12.2727L12.2727 87.5403Z" fill="#232227"/>
<path d="M16.1746 77.2933L16.0367 78.3411C15.7271 78.3634 15.4481 78.437 15.1995 78.5619C14.9514 78.6839 14.7354 78.8446 14.5515 79.0439C14.3653 79.24 14.2153 79.4653 14.1015 79.7196C13.9878 79.974 13.912 80.2448 13.8742 80.5321C13.8052 81.056 13.8751 81.5481 14.0839 82.0082C14.293 82.4656 14.6388 82.8535 15.1213 83.172C15.6041 83.4878 16.2201 83.6949 16.9693 83.7936C17.7185 83.8922 18.3672 83.8515 18.9152 83.6715C19.4637 83.4887 19.8981 83.2035 20.2185 82.8158C20.5392 82.4254 20.7341 81.9682 20.8031 81.4443C20.8409 81.157 20.8378 80.8758 20.7938 80.6007C20.7498 80.3255 20.6646 80.0693 20.5382 79.8321C20.4094 79.5916 20.241 79.3803 20.0328 79.1982C19.8223 79.0128 19.5718 78.8696 19.2814 78.7683L19.4193 77.7205C19.8512 77.8576 20.228 78.0533 20.5498 78.3077C20.8716 78.5621 21.1346 78.8604 21.3389 79.2025C21.5403 79.5442 21.679 79.9163 21.755 80.3189C21.8313 80.7186 21.8407 81.1368 21.7832 81.5734C21.6861 82.3113 21.4194 82.9439 20.9833 83.471C20.5471 83.9981 19.9749 84.3827 19.2668 84.6247C18.5587 84.8668 17.7484 84.9277 16.8358 84.8076C15.9232 84.6874 15.1563 84.4188 14.5349 84.0018C13.9136 83.5847 13.4605 83.0651 13.1756 82.4431C12.8907 81.821 12.7969 81.141 12.894 80.4031C12.9515 79.9665 13.0688 79.565 13.246 79.1987C13.4236 78.8295 13.6553 78.5061 13.9411 78.2285C14.2241 77.9506 14.554 77.7304 14.9307 77.568C15.3045 77.4051 15.7192 77.3136 16.1746 77.2933Z" fill="#232227"/>
<path d="M13.8998 74.9582L14.213 73.7893L18.7745 72.5057L18.801 72.4069L15.4924 69.0145L15.8056 67.8455L19.9453 72.2194L23.4194 73.1503L23.1458 74.1711L19.6718 73.2402L13.8998 74.9582Z" fill="#232227"/>
<path d="M29.3302 50.1987L30.1421 50.6675L24.1421 61.0598L23.3302 60.591L29.3302 50.1987Z" fill="#232227"/>
<path d="M40.5796 43.668L38.6753 45.5724L32.5042 39.4013L34.4929 37.4125C35.0915 36.8139 35.7273 36.4252 36.4003 36.2464C37.0712 36.0656 37.7502 36.0917 38.4372 36.3248C39.1222 36.5558 39.7841 36.9907 40.4229 37.6295C41.0658 38.2723 41.5047 38.9403 41.7397 39.6333C41.9728 40.3243 41.9949 41.0134 41.806 41.7004C41.6152 42.3854 41.2064 43.0413 40.5796 43.668ZM38.7596 44.1622L39.8685 43.0533C40.3788 42.5431 40.7032 42.0218 40.8418 41.4895C40.9804 40.9571 40.9503 40.4268 40.7514 39.8985C40.5525 39.3701 40.202 38.8549 39.6998 38.3527C39.2016 37.8545 38.6913 37.507 38.169 37.3101C37.6447 37.1112 37.1245 37.0771 36.6082 37.2076C36.0899 37.3362 35.5897 37.6415 35.1076 38.1237L33.9143 39.3169L38.7596 44.1622Z" fill="#232227"/>
<path d="M45.2065 39.3849L39.8937 32.4611L44.0723 29.2548L44.643 29.9985L41.3028 32.5615L43.098 34.901L46.2218 32.504L46.7925 33.2478L43.6687 35.6448L45.4742 37.9978L48.8685 35.3933L49.4393 36.1371L45.2065 39.3849Z" fill="#232227"/>
<path d="M52.9623 26.3061C52.7021 25.9577 52.3549 25.7711 51.9206 25.7462C51.4864 25.7214 51.0405 25.8411 50.5828 26.1053C50.2482 26.2984 49.9867 26.5216 49.7983 26.7747C49.6123 27.0265 49.5038 27.2875 49.473 27.5579C49.4446 27.8269 49.5 28.082 49.6392 28.3231C49.7557 28.5248 49.9038 28.6706 50.0835 28.7603C50.2643 28.8462 50.4587 28.8931 50.6666 28.901C50.8732 28.9064 51.0778 28.8916 51.2806 28.8565C51.482 28.8189 51.6635 28.7781 51.825 28.7341L52.712 28.4976C52.9386 28.4356 53.1988 28.3805 53.4925 28.3323C53.7886 28.2828 54.0928 28.2728 54.4051 28.3024C54.7185 28.3281 55.0181 28.4209 55.3039 28.5806C55.5897 28.7404 55.8348 28.9974 56.0394 29.3517C56.2752 29.7601 56.3812 30.1909 56.3575 30.6442C56.3363 31.096 56.1775 31.537 55.8814 31.9672C55.5876 32.3959 55.1504 32.7779 54.5698 33.1132C54.0285 33.4257 53.5094 33.6089 53.0125 33.6629C52.518 33.7155 52.0673 33.6509 51.6606 33.4691C51.2563 33.2859 50.9201 32.9962 50.6519 32.5999L51.5967 32.0545C51.7861 32.3257 52.0184 32.5065 52.2936 32.5968C52.5699 32.6834 52.8635 32.6976 53.1744 32.6394C53.4863 32.5774 53.7924 32.4598 54.0925 32.2865C54.4419 32.0848 54.7229 31.8471 54.9356 31.5734C55.1468 31.2973 55.2747 31.0102 55.3192 30.7123C55.3622 30.4118 55.3042 30.1239 55.1451 29.8483C55.0003 29.5974 54.8122 29.4336 54.5811 29.3571C54.3499 29.2806 54.0916 29.2592 53.8059 29.2929C53.5203 29.3266 53.2233 29.3833 52.915 29.4629L51.8316 29.7341C51.1431 29.9052 50.5358 29.9328 50.0095 29.8167C49.4832 29.7007 49.0731 29.388 48.7791 28.8787C48.5347 28.4556 48.4361 28.0205 48.4831 27.5734C48.5311 27.1225 48.699 26.6975 48.9869 26.2984C49.2758 25.8954 49.6614 25.5547 50.1436 25.2763C50.6308 24.9951 51.1142 24.8324 51.5939 24.7883C52.0722 24.7418 52.5088 24.8047 52.9035 24.977C53.3007 25.1479 53.6155 25.4205 53.848 25.7947L52.9623 26.3061Z" fill="#232227"/>
<path d="M59.5062 20.8359L62.846 28.8989L61.8696 29.3033L58.5298 21.2404L59.5062 20.8359Z" fill="#232227"/>
<path d="M72.0655 19.6945C71.9007 19.4416 71.7148 19.2252 71.5078 19.0454C71.3028 18.8621 71.0778 18.7194 70.8329 18.6174C70.5906 18.5147 70.3309 18.4564 70.0536 18.4424C69.7764 18.4285 69.4854 18.4623 69.1808 18.5439C68.6814 18.6777 68.2618 18.9284 67.9221 19.2959C67.5823 19.6634 67.359 20.1306 67.252 20.6975C67.1451 21.2644 67.1894 21.9128 67.385 22.6427C67.5806 23.3726 67.8678 23.956 68.2466 24.3927C68.6254 24.8294 69.0579 25.1209 69.5441 25.2671C70.0303 25.4132 70.5341 25.4165 71.0555 25.2768C71.5384 25.1474 71.9362 24.9305 72.2488 24.6262C72.5633 24.3184 72.7728 23.9475 72.8771 23.5137C72.9835 23.0764 72.9675 22.5998 72.8293 22.0839L73.1598 22.0659L70.6242 22.7453L70.3816 21.8398L73.5922 20.9795L73.8348 21.885C74.0209 22.5793 74.0344 23.2227 73.8756 23.8153C73.7195 24.4071 73.4199 24.9138 72.977 25.3354C72.5361 25.7536 71.9809 26.0523 71.3114 26.2317C70.565 26.4317 69.8621 26.4318 69.2027 26.2321C68.546 26.0315 67.9731 25.6498 67.484 25.0867C66.9977 24.5229 66.6354 23.7965 66.3971 22.9074C66.2185 22.2406 66.147 21.6171 66.1827 21.0369C66.2204 20.4533 66.3536 19.9294 66.5822 19.4652C66.8107 19.0011 67.1232 18.6085 67.5195 18.2876C67.9159 17.9667 68.3844 17.7338 68.925 17.589C69.3695 17.4699 69.8019 17.4261 70.2221 17.4576C70.6443 17.4856 71.039 17.5813 71.4063 17.7447C71.7756 17.9045 72.107 18.126 72.4005 18.4091C72.6933 18.6895 72.9329 19.0238 73.1193 19.4121L72.0655 19.6945Z" fill="#232227"/>
<path d="M81.5457 15.469L82.6849 24.1216L81.6709 24.2551L76.0615 18.0822L75.977 18.0933L76.8714 24.887L75.8236 25.0249L74.6845 16.3723L75.6985 16.2388L81.327 22.4264L81.4115 22.4153L80.5149 15.6047L81.5457 15.469Z" fill="#232227"/>
<path d="M94.6237 24.2939L93.5252 24.1493L97.8415 15.9149L98.9231 16.0573L100.961 25.1282L99.8626 24.9836L98.2358 17.3594L98.1682 17.3505L94.6237 24.2939ZM95.4742 20.9673L99.902 21.5503L99.7796 22.4797L95.3519 21.8968L95.4742 20.9673Z" fill="#232227"/>
<path d="M109.853 21.2804C109.837 20.979 109.784 20.6986 109.695 20.4394C109.609 20.1781 109.485 19.9421 109.324 19.7313C109.166 19.5212 108.97 19.3408 108.737 19.1901C108.504 19.0394 108.235 18.9232 107.93 18.8416C107.431 18.7078 106.942 18.7151 106.464 18.8635C105.986 19.0119 105.559 19.3048 105.183 19.7423C104.807 20.1797 104.521 20.7634 104.326 21.4934C104.13 22.2233 104.087 22.8721 104.197 23.4397C104.306 24.0073 104.535 24.4759 104.883 24.8457C105.231 25.2154 105.666 25.4701 106.187 25.6098C106.67 25.7392 107.123 25.7502 107.546 25.643C107.972 25.5337 108.339 25.3173 108.646 24.9937C108.957 24.6682 109.182 24.2474 109.32 23.7316L109.615 23.8812L107.08 23.2018L107.322 22.2963L110.533 23.1566L110.29 24.0621C110.104 24.7564 109.794 25.3204 109.36 25.7541C108.929 26.1886 108.416 26.4777 107.822 26.6213C107.231 26.763 106.601 26.7441 105.931 26.5647C105.185 26.3647 104.576 26.0134 104.105 25.5107C103.637 25.0087 103.331 24.3916 103.189 23.6594C103.05 22.928 103.099 22.1177 103.338 21.2287C103.516 20.5618 103.766 19.9861 104.087 19.5016C104.412 19.015 104.789 18.6279 105.219 18.3402C105.649 18.0524 106.116 17.8687 106.62 17.789C107.123 17.7093 107.645 17.7418 108.186 17.8867C108.631 18.0058 109.027 18.184 109.375 18.4214C109.727 18.6568 110.021 18.9371 110.257 19.2622C110.497 19.5853 110.673 19.9428 110.786 20.3347C110.899 20.7239 110.94 21.1333 110.907 21.5627L109.853 21.2804Z" fill="#232227"/>
<path d="M111.303 28.1322L114.643 20.0693L119.509 22.0849L119.15 22.951L115.261 21.3398L114.132 24.0642L117.77 25.571L117.411 26.4372L113.773 24.9304L112.638 27.6705L116.591 29.3078L116.232 30.1739L111.303 28.1322Z" fill="#232227"/>
<path d="M128.86 27.1481L124.496 34.7062L123.61 34.1948L122.918 25.8827L122.844 25.8401L119.418 31.7743L118.503 31.2459L122.867 23.6879L123.752 24.1992L124.451 32.5346L124.525 32.5772L127.959 26.6282L128.86 27.1481Z" fill="#232227"/>
<path d="M135.783 35.6507L134.945 35.0074C135.08 34.7281 135.156 34.4497 135.172 34.172C135.19 33.8961 135.159 33.6287 135.079 33.3698C135.002 33.1104 134.882 32.8679 134.718 32.6422C134.555 32.4165 134.358 32.2155 134.128 32.0391C133.709 31.7174 133.248 31.532 132.745 31.4827C132.245 31.4351 131.736 31.5406 131.219 31.7991C130.704 32.0594 130.216 32.4893 129.756 33.0888C129.296 33.6883 129.007 34.2704 128.889 34.8351C128.773 35.4014 128.803 35.9203 128.978 36.3915C129.156 36.8646 129.455 37.2619 129.874 37.5836C130.104 37.76 130.349 37.8979 130.609 37.9974C130.869 38.0968 131.134 38.1512 131.403 38.1604C131.675 38.169 131.942 38.1288 132.204 38.0396C132.47 37.9499 132.719 37.8046 132.952 37.6038L133.791 38.2471C133.456 38.5526 133.098 38.781 132.717 38.9325C132.336 39.084 131.946 39.1627 131.548 39.1685C131.151 39.1721 130.759 39.1062 130.373 38.9707C129.988 38.8369 129.621 38.636 129.272 38.3679C128.682 37.9148 128.267 37.3676 128.029 36.7263C127.79 36.085 127.743 35.3972 127.888 34.663C128.032 33.9287 128.385 33.1965 128.945 32.4662C129.505 31.736 130.121 31.2061 130.793 30.8765C131.465 30.5469 132.142 30.4143 132.823 30.4786C133.504 30.5429 134.14 30.8017 134.73 31.2548C135.08 31.5228 135.369 31.8252 135.597 32.1618C135.828 32.5002 135.992 32.8625 136.09 33.2488C136.189 33.6329 136.215 34.0287 136.167 34.4361C136.121 34.8413 135.993 35.2462 135.783 35.6507Z" fill="#232227"/>
<path d="M138.943 34.8482L139.798 35.7039L138.629 40.2961L138.702 40.3684L143.294 39.1993L144.15 40.055L138.292 41.4532L135.749 43.9964L135.001 43.2491L137.545 40.7059L138.943 34.8482Z" fill="#232227"/>
<path d="M152.67 60.5911L151.858 61.0598L145.858 50.6675L146.67 50.1987L152.67 60.5911Z" fill="#232227"/>
<path d="M152.701 73.5988L152.004 70.9973L160.434 68.7386L161.162 71.4552C161.381 72.273 161.4 73.0179 161.218 73.6901C161.039 74.3616 160.677 74.9365 160.132 75.415C159.589 75.8927 158.881 76.2485 158.009 76.4823C157.131 76.7176 156.333 76.7638 155.615 76.6208C154.9 76.4771 154.292 76.1517 153.792 75.6447C153.294 75.1369 152.93 74.4549 152.701 73.5988ZM153.183 71.7755L153.589 73.2903C153.776 73.9873 154.065 74.5289 154.457 74.9151C154.848 75.3013 155.323 75.5403 155.88 75.6323C156.437 75.7242 157.058 75.6783 157.744 75.4944C158.425 75.3121 158.981 75.044 159.412 74.6901C159.847 74.3355 160.136 73.902 160.281 73.3896C160.429 72.8764 160.415 72.2906 160.238 71.632L159.802 70.002L153.183 71.7755Z" fill="#232227"/>
<path d="M154.097 79.7473L162.749 78.6081L163.437 83.8301L162.507 83.9525L161.958 79.7783L159.034 80.1632L159.548 84.067L158.619 84.1894L158.105 80.2855L155.164 80.6727L155.723 84.9145L154.793 85.0369L154.097 79.7473Z" fill="#232227"/>
<path d="M161.545 93.0034C161.977 92.9522 162.312 92.7449 162.551 92.3812C162.79 92.0176 162.909 91.5716 162.909 91.0431C162.909 90.6568 162.847 90.3187 162.722 90.0289C162.597 89.742 162.425 89.5176 162.206 89.3556C161.987 89.1966 161.739 89.117 161.46 89.117C161.227 89.117 161.027 89.1724 160.859 89.2832C160.695 89.3968 160.557 89.5417 160.446 89.7179C160.338 89.894 160.249 90.0787 160.178 90.2718C160.109 90.465 160.054 90.6426 160.011 90.8045L159.773 91.6909C159.713 91.9181 159.631 92.171 159.526 92.4494C159.42 92.7306 159.277 92.9991 159.095 93.2548C158.916 93.5133 158.686 93.7264 158.405 93.894C158.124 94.0616 157.778 94.1454 157.369 94.1454C156.898 94.1454 156.472 94.0218 156.091 93.7747C155.71 93.5304 155.408 93.1724 155.183 92.7008C154.959 92.2321 154.847 91.6625 154.847 90.992C154.847 90.367 154.947 89.8258 155.149 89.3684C155.351 88.9139 155.632 88.5559 155.993 88.2946C156.354 88.036 156.773 87.8897 157.25 87.8556V88.9466C156.92 88.975 156.648 89.0858 156.432 89.2789C156.219 89.475 156.06 89.7221 155.955 90.0204C155.852 90.3216 155.801 90.6454 155.801 90.992C155.801 91.3954 155.866 91.7576 155.997 92.0787C156.131 92.3997 156.315 92.6539 156.551 92.8414C156.79 93.0289 157.068 93.1227 157.386 93.1227C157.676 93.1227 157.912 93.0417 158.094 92.8798C158.276 92.7179 158.423 92.5048 158.537 92.2406C158.651 91.9764 158.75 91.6909 158.835 91.3841L159.142 90.3102C159.338 89.6284 159.618 89.0886 159.982 88.6909C160.345 88.2931 160.821 88.0943 161.409 88.0943C161.898 88.0943 162.324 88.2264 162.688 88.4906C163.054 88.7576 163.338 89.1156 163.54 89.5645C163.744 90.0162 163.847 90.5204 163.847 91.0772C163.847 91.6397 163.746 92.1397 163.544 92.5772C163.345 93.0147 163.072 93.3613 162.726 93.617C162.379 93.8755 161.986 94.0119 161.545 94.0261V93.0034Z" fill="#232227"/>
<path d="M163.011 101.406L154.358 100.266L154.496 99.2187L163.149 100.358L163.011 101.406Z" fill="#232227"/>
<path d="M157.72 112.853C158.021 112.837 158.301 112.784 158.561 112.695C158.822 112.609 159.058 112.485 159.269 112.324C159.479 112.166 159.659 111.97 159.81 111.737C159.961 111.504 160.077 111.235 160.158 110.93C160.292 110.431 160.285 109.942 160.137 109.464C159.988 108.986 159.695 108.559 159.258 108.183C158.82 107.807 158.237 107.521 157.507 107.326C156.777 107.13 156.128 107.087 155.56 107.197C154.993 107.306 154.524 107.535 154.154 107.883C153.785 108.231 153.53 108.666 153.39 109.187C153.261 109.67 153.25 110.123 153.357 110.546C153.466 110.972 153.683 111.339 154.006 111.646C154.332 111.957 154.753 112.182 155.268 112.32L155.119 112.615L155.798 110.079L156.704 110.322L155.843 113.533L154.938 113.29C154.244 113.104 153.68 112.794 153.246 112.36C152.811 111.929 152.522 111.416 152.379 110.822C152.237 110.231 152.256 109.601 152.435 108.931C152.635 108.185 152.987 107.576 153.489 107.105C153.991 106.637 154.608 106.331 155.341 106.189C156.072 106.05 156.882 106.099 157.771 106.338C158.438 106.516 159.014 106.766 159.498 107.087C159.985 107.412 160.372 107.789 160.66 108.219C160.948 108.649 161.131 109.116 161.211 109.62C161.291 110.123 161.258 110.645 161.113 111.186C160.994 111.631 160.816 112.027 160.579 112.375C160.343 112.727 160.063 113.021 159.738 113.257C159.415 113.497 159.057 113.673 158.665 113.786C158.276 113.899 157.867 113.94 157.437 113.907L157.72 112.853Z" fill="#232227"/>
<path d="M156.639 123.176L148.576 119.836L148.967 118.891L157.118 117.12L157.151 117.041L150.82 114.419L151.224 113.442L159.287 116.782L158.896 117.727L150.723 119.508L150.69 119.587L157.037 122.215L156.639 123.176Z" fill="#232227"/>
<path d="M142.457 130.089L143.132 129.21L148.105 137.065L147.441 137.931L138.566 135.16L139.241 134.281L146.657 136.685L146.698 136.631L142.457 130.089ZM144.913 132.489L142.194 136.032L141.451 135.462L144.169 131.918L144.913 132.489Z" fill="#232227"/>
<path d="M137.452 144.785C137.722 144.922 137.991 145.016 138.26 145.068C138.529 145.125 138.795 145.136 139.058 145.102C139.32 145.069 139.574 144.99 139.821 144.864C140.068 144.737 140.303 144.562 140.526 144.339C140.892 143.974 141.13 143.547 141.24 143.059C141.351 142.57 141.31 142.054 141.12 141.51C140.929 140.965 140.566 140.426 140.032 139.892C139.497 139.357 138.957 138.996 138.411 138.807C137.864 138.618 137.344 138.582 136.85 138.698C136.356 138.815 135.918 139.064 135.536 139.446C135.182 139.799 134.946 140.186 134.828 140.606C134.709 141.03 134.713 141.456 134.84 141.883C134.966 142.315 135.219 142.72 135.596 143.098L135.319 143.279L137.175 141.422L137.838 142.085L135.488 144.436L134.825 143.773C134.317 143.265 133.983 142.714 133.824 142.121C133.664 141.531 133.67 140.942 133.843 140.356C134.015 139.773 134.347 139.237 134.837 138.747C135.383 138.2 135.992 137.849 136.663 137.692C137.332 137.537 138.019 137.582 138.724 137.825C139.427 138.07 140.104 138.518 140.755 139.169C141.243 139.657 141.617 140.161 141.876 140.681C142.135 141.205 142.282 141.726 142.316 142.242C142.35 142.758 142.276 143.254 142.093 143.731C141.91 144.207 141.621 144.643 141.225 145.038C140.9 145.364 140.547 145.618 140.167 145.801C139.788 145.987 139.398 146.102 138.998 146.144C138.598 146.19 138.201 146.164 137.805 146.066C137.411 145.969 137.037 145.8 136.681 145.557L137.452 144.785Z" fill="#232227"/>
<path d="M130.793 142.615L136.106 149.539L131.928 152.745L131.357 152.001L134.697 149.438L132.902 147.099L129.778 149.496L129.207 148.752L132.331 146.355L130.526 144.002L127.131 146.607L126.561 145.863L130.793 142.615Z" fill="#232227"/>
<path d="M122.867 158.312L118.504 150.754L119.39 150.242L126.934 153.799L127.008 153.756L123.582 147.822L124.497 147.293L128.861 154.851L127.975 155.363L120.407 151.8L120.333 151.843L123.768 157.792L122.867 158.312Z" fill="#232227"/>
<path d="M112.042 160.056L113.019 159.652C113.193 159.908 113.396 160.113 113.629 160.266C113.858 160.42 114.105 160.527 114.37 160.586C114.633 160.65 114.903 160.667 115.18 160.638C115.457 160.609 115.73 160.54 115.997 160.429C116.486 160.227 116.877 159.92 117.171 159.509C117.462 159.099 117.626 158.606 117.66 158.029C117.692 157.453 117.564 156.816 117.274 156.118C116.985 155.419 116.626 154.878 116.196 154.493C115.763 154.11 115.299 153.876 114.803 153.793C114.305 153.71 113.811 153.77 113.323 153.972C113.055 154.083 112.813 154.226 112.597 154.402C112.381 154.578 112.201 154.78 112.059 155.008C111.915 155.239 111.817 155.491 111.763 155.762C111.708 156.037 111.709 156.326 111.766 156.628L110.79 157.032C110.693 156.59 110.674 156.166 110.733 155.76C110.793 155.354 110.92 154.977 111.114 154.629C111.309 154.284 111.562 153.977 111.872 153.71C112.18 153.444 112.538 153.227 112.945 153.059C113.632 152.774 114.314 152.689 114.988 152.803C115.663 152.917 116.282 153.22 116.845 153.712C117.409 154.205 117.867 154.876 118.219 155.726C118.572 156.577 118.722 157.375 118.672 158.122C118.621 158.868 118.398 159.521 118.002 160.078C117.605 160.636 117.063 161.057 116.376 161.342C115.969 161.511 115.563 161.61 115.157 161.64C114.748 161.67 114.352 161.631 113.969 161.523C113.587 161.416 113.231 161.241 112.902 160.996C112.574 160.754 112.288 160.44 112.042 160.056Z" fill="#232227"/>
<path d="M111.158 163.194L109.989 163.507L106.596 160.198L106.497 160.225L105.214 164.786L104.045 165.099L105.763 159.327L104.832 155.853L105.853 155.58L106.784 159.054L111.158 163.194Z" fill="#232227"/>
</svg>
